<svg width="16" height="16" viewBox="0 0 16 16" fill="none" xmlns="http://www.w3.org/2000/svg">
<path d="M14.875 5.17062C14.8282 5.11718 14.7706 5.07431 14.7059 5.04489C14.6412 5.01547 14.571 5.00017 14.5 5H11.7269L8.375 1.17062C8.32808 1.11742 8.27038 1.07481 8.20572 1.04562C8.14107 1.01644 8.07094 1.00134 8 1.00134C7.92907 1.00134 7.85894 1.01644 7.79428 1.04562C7.72963 1.07481 7.67192 1.11742 7.625 1.17062L4.27313 5H1.5C1.42874 4.99999 1.35831 5.01522 1.29341 5.04466C1.22852 5.0741 1.17067 5.11707 1.12373 5.17069C1.0768 5.22431 1.04187 5.28734 1.02129 5.35556C1.0007 5.42378 0.994936 5.49562 1.00438 5.56625L1.94625 12.6325C1.97911 12.8723 2.09752 13.0922 2.27967 13.2516C2.46182 13.411 2.69545 13.4992 2.9375 13.5H13.0625C13.3046 13.4992 13.5382 13.411 13.7203 13.2516C13.9025 13.0922 14.0209 12.8723 14.0538 12.6325L14.9956 5.56625C15.0049 5.49552 14.9989 5.42362 14.9781 5.35538C14.9573 5.28714 14.9222 5.22415 14.875 5.17062ZM5.1 11.5C5.08314 11.501 5.06624 11.501 5.04938 11.5C4.92499 11.5006 4.80484 11.4549 4.71239 11.3717C4.61994 11.2884 4.56182 11.1738 4.54938 11.05L4.19938 7.55C4.18612 7.41805 4.22581 7.28625 4.30974 7.18357C4.39366 7.08089 4.51493 7.01576 4.64688 7.0025C4.77882 6.98924 4.91063 7.02894 5.01331 7.11286C5.11598 7.19678 5.18112 7.31805 5.19438 7.45L5.54438 10.95C5.55838 11.0819 5.51943 11.2139 5.43609 11.317C5.35276 11.4202 5.23186 11.486 5.1 11.5ZM8.5 11C8.5 11.1326 8.44732 11.2598 8.35356 11.3536C8.25979 11.4473 8.13261 11.5 8 11.5C7.86739 11.5 7.74022 11.4473 7.64645 11.3536C7.55268 11.2598 7.5 11.1326 7.5 11V7.5C7.5 7.36739 7.55268 7.24021 7.64645 7.14645C7.74022 7.05268 7.86739 7 8 7C8.13261 7 8.25979 7.05268 8.35356 7.14645C8.44732 7.24021 8.5 7.36739 8.5 7.5V11ZM5.60188 5L8 2.25937L10.3981 5H5.60188ZM11.7975 7.55L11.4475 11.05C11.4351 11.1732 11.3774 11.2875 11.2856 11.3706C11.1939 11.4537 11.0745 11.4998 10.9506 11.5C10.9338 11.501 10.9169 11.501 10.9 11.5C10.8347 11.4934 10.7713 11.4741 10.7134 11.443C10.6556 11.4119 10.6044 11.3698 10.5629 11.3189C10.5213 11.2681 10.4902 11.2096 10.4712 11.1467C10.4523 11.0838 10.4459 11.0178 10.4525 10.9525L10.8025 7.4525C10.8158 7.32055 10.8809 7.19928 10.9836 7.11536C11.0862 7.03143 11.2181 6.99174 11.35 7.005C11.4819 7.01826 11.6032 7.08339 11.6871 7.18607C11.7711 7.28874 11.8108 7.42055 11.7975 7.5525V7.55Z" fill="#2ECC71"/>
</svg>
